<svg width="159" height="34" viewBox="0 0 159 34" fill="none" xmlns="http://www.w3.org/2000/svg">
<g clip-path="url(#clip0_2006_3835)">
<path d="M12.2093 8.85886C14.4574 8.85886 16.278 7.03827 16.278 4.79016C16.278 2.54206 14.4574 0.717773 12.2093 0.717773C9.96122 0.717773 8.14062 2.53837 8.14062 4.78647C8.14062 7.03458 9.96122 8.85518 12.2093 8.85518V8.85886Z" fill="white" fill-opacity="0.7"/>
<path d="M24.4233 17C24.4233 12.5038 20.7784 8.85889 16.2822 8.85889V17C16.2822 12.5038 12.6373 8.85889 8.14109 8.85889C3.64488 8.85889 0 12.5038 0 17V25.1411C0 29.6373 3.64488 33.2822 8.14109 33.2822V25.1411C8.14109 29.6373 11.786 33.2822 16.2822 33.2822C20.7784 33.2822 24.4233 29.6373 24.4233 25.1411H16.2822C20.7784 25.1411 24.4233 21.4962 24.4233 17ZM16.2822 21.0687C16.2822 23.3168 14.4616 25.1374 12.2135 25.1374C9.96537 25.1374 8.14478 23.3168 8.14478 21.0687C8.14478 18.8206 9.96537 17 12.2135 17C14.4616 17 16.2822 18.8206 16.2822 21.0687Z" fill="white" fill-opacity="0.7"/>
<path d="M39.3933 13.2517C41.3797 13.2517 42.8907 13.8119 43.9263 14.9286C44.9619 16.0489 45.4779 17.4678 45.4779 19.1926C45.4779 20.3719 45.2052 21.4481 44.6634 22.4137C44.1216 23.3792 43.3219 24.1053 42.2679 24.5917L45.7911 29.5118H40.8085L37.7238 25.1556H35.5973V29.5118H31.4512V13.2554H39.3933V13.2517ZM35.601 17.044V21.3781H39.1648C39.9424 21.3781 40.521 21.1754 40.8932 20.7736C41.2691 20.3719 41.4571 19.856 41.4571 19.2295C41.4571 17.77 40.6942 17.0403 39.1648 17.0403H35.601V17.044Z" fill="white" fill-opacity="0.7"/>
<path d="M47.2207 13.2517H59.7069V17.2946H51.3889V19.6275H58.2254V23.4014H51.3889V25.4873H59.7069V29.5118H47.2207V13.2554V13.2517Z" fill="white" fill-opacity="0.7"/>
<path d="M61.0781 13.2517H75.3775V17.2946H70.3138V29.5081H66.1456V17.2946H61.0818V13.2517H61.0781Z" fill="white" fill-opacity="0.7"/>
<path d="M77.9319 15.4188C79.6346 13.764 81.6579 12.9385 84.0092 12.9385C86.3605 12.9385 88.4169 13.764 90.1049 15.4188C91.7928 17.0735 92.6367 19.06 92.6367 21.3818C92.6367 23.7036 91.7928 25.69 90.1049 27.3448C88.4169 28.9995 86.3826 29.8251 84.0092 29.8251C81.6358 29.8251 79.6346 28.9995 77.9319 27.3448C76.2293 25.69 75.3779 23.7036 75.3779 21.3818C75.3779 19.06 76.2293 17.0735 77.9319 15.4188ZM80.8803 24.507C81.7427 25.3694 82.7856 25.8006 84.0055 25.8006C85.2254 25.8006 86.3052 25.3731 87.1528 24.5181C88.0005 23.663 88.4243 22.6164 88.4243 21.3818C88.4243 20.1472 88.0005 19.1005 87.1528 18.2455C86.3052 17.3905 85.2549 16.963 84.0055 16.963C82.7561 16.963 81.739 17.3941 80.8803 18.2565C80.0179 19.1189 79.5867 20.1619 79.5867 21.3818C79.5867 22.6016 80.0179 23.6483 80.8803 24.507Z" fill="white" fill-opacity="0.7"/>
<path d="M97.2027 24.6323V24.7355C97.2027 25.0967 97.4423 25.432 97.9214 25.7453C98.4005 26.0586 99.0786 26.2134 99.952 26.2134C100.674 26.2134 101.198 26.1175 101.526 25.9222C101.854 25.7269 102.016 25.491 102.016 25.2146C102.016 24.8829 101.809 24.5881 101.4 24.3375C100.991 24.0869 100.273 23.7883 99.2444 23.4419C98.5921 23.2208 98.0467 23.0255 97.6081 22.8596C97.1695 22.6938 96.6499 22.4469 96.0455 22.1189C95.4411 21.7909 94.9583 21.4518 94.5971 21.098C94.2359 20.7442 93.9227 20.2946 93.6573 19.7528C93.392 19.2111 93.263 18.6214 93.263 17.9801C93.263 16.4507 93.8527 15.2271 95.0357 14.3131C96.2187 13.3955 97.7445 12.9385 99.6203 12.9385C101.496 12.9385 103.144 13.4176 104.393 14.3758C105.642 15.334 106.269 16.6055 106.269 18.1902V18.4187H102.204V18.2713C102.204 17.8253 101.986 17.4273 101.548 17.0735C101.109 16.7197 100.494 16.5428 99.7014 16.5428C99.0491 16.5428 98.5553 16.6497 98.2199 16.8671C97.8845 17.0846 97.7187 17.3426 97.7187 17.6484C97.7187 17.9543 97.9066 18.216 98.2825 18.4298C98.6584 18.6435 99.3661 18.9347 100.409 19.2958C100.866 19.4617 101.223 19.5907 101.47 19.6828C101.717 19.7749 102.093 19.926 102.587 20.1398C103.081 20.3535 103.472 20.5562 103.766 20.7442C104.058 20.9321 104.4 21.1828 104.787 21.496C105.178 21.8093 105.48 22.1262 105.694 22.4432C105.908 22.7601 106.096 23.1434 106.258 23.5893C106.416 24.0353 106.497 24.4996 106.497 24.9861C106.497 26.5303 105.9 27.7207 104.706 28.561C103.512 29.4012 101.953 29.8214 100.037 29.8214C98.0209 29.8214 96.3698 29.3754 95.0762 28.4873C93.7826 27.5991 93.1377 26.3755 93.1377 24.8203V24.6323H97.2027Z" fill="white" fill-opacity="0.7"/>
<path d="M111.063 29.5117L106.497 13.2554H110.938L113.566 22.948L116.61 13.2554H120.321L123.365 22.9259L125.993 13.2554H130.452L125.886 29.5117H121.57L118.464 20.0697L115.379 29.5117H111.063Z" fill="white" fill-opacity="0.7"/>
<path d="M145.452 13.2517H152.624C154.666 13.2517 156.239 13.8524 157.345 15.0539C158.451 16.2553 159.003 17.7332 159.003 19.4838C159.003 21.2343 158.454 22.8154 157.356 24.0168C156.258 25.2183 154.68 25.819 152.624 25.819H149.624V29.5081H145.456V13.2517H145.452ZM149.62 17.044V22.0267H152.392C153.991 22.0267 154.787 21.1864 154.787 19.5059C154.787 18.7983 154.592 18.2086 154.205 17.7442C153.814 17.2799 153.21 17.0477 152.392 17.0477H149.62V17.044Z" fill="white" fill-opacity="0.7"/>
<path d="M139.692 29.5117H144.151L139.585 13.2554H133.497L128.931 29.5117H133.39L133.884 27.6875H139.191L139.685 29.5117H139.692ZM134.916 23.9136L136.545 17.9174L138.174 23.9136H134.916Z" fill="white" fill-opacity="0.7"/>
</g>
<defs>
<clipPath id="clip0_2006_3835">
<rect width="159" height="32.5644" fill="white" transform="translate(0 0.717773)"/>
</clipPath>
</defs>
</svg>
